<svg width="50" height="55" viewBox="0 0 50 55" fill="none" xmlns="http://www.w3.org/2000/svg">
<path d="M4.55014 49.5016L0 0H50L45.4453 49.4942L24.9697 55L4.55014 49.5016Z" fill="#1572B6"/>
<path d="M25.0004 50.7921L41.5459 46.3429L45.4385 4.04761H25.0004V50.7921Z" fill="#33A9DC"/>
<path d="M25.0004 21.9813H33.2833L33.8554 15.7643H25.0004V9.69312H40.6964L40.5462 11.3221L39.0074 28.0525H25.0004V21.9813Z" fill="white"/>
<path d="M25.0375 37.7492L25.0099 37.7571L18.0389 35.9315L17.5931 31.0894H11.3105L12.1872 40.6222L25.009 44.0737L25.0375 44.0658V37.7492Z" fill="#EBEBEB"/>
<path d="M32.7512 27.7964L31.9972 35.9267L25.0159 37.7546V44.0712L37.8481 40.6218L37.9422 39.596L39.0311 27.7964H32.7512Z" fill="white"/>
<path d="M25.0217 9.69312V15.7643H9.9022L9.77684 14.4001L9.49172 11.3221L9.34192 9.69312H25.0217ZM25.0004 21.9822V28.0534H18.1173L17.9919 26.6891L17.7063 23.6111L17.557 21.9822H25.0004Z" fill="#EBEBEB"/>
</svg>
