<svg width="55" height="55" viewBox="0 0 55 55" fill="none" xmlns="http://www.w3.org/2000/svg">
<path d="M53.9625 25.0503L29.9488 1.03718C28.5668 -0.345727 26.3238 -0.345727 24.9396 1.03718L19.9535 6.02419L26.2789 12.3497C27.7494 11.8534 29.4347 12.1863 30.6062 13.3579C31.7839 14.5369 32.1142 16.2365 31.6057 17.7118L37.7019 23.8085C39.1768 23.3001 40.879 23.6286 42.0563 24.8085C43.7032 26.4541 43.7032 29.1219 42.0563 30.7684C41.6649 31.16 41.2002 31.4706 40.6887 31.6825C40.1773 31.8944 39.6291 32.0035 39.0755 32.0035C38.5218 32.0035 37.9736 31.8944 37.4622 31.6825C36.9507 31.4706 36.486 31.16 36.0947 30.7684C35.5067 30.18 35.1058 29.4308 34.9426 28.6152C34.7794 27.7995 34.8612 26.9537 35.1775 26.1844L29.4926 20.4994L29.4917 35.4617C29.9042 35.6649 30.2808 35.9339 30.6067 36.2582C32.2527 37.9038 32.2527 40.5707 30.6067 42.2199C28.9602 43.8655 26.2916 43.8655 24.6468 42.2199C23.0008 40.5712 23.0008 37.9043 24.6468 36.2582C25.0412 35.8632 25.5103 35.5507 26.0267 35.3389V20.238C25.5098 20.0268 25.0406 19.714 24.6468 19.3182C23.3999 18.0721 23.0997 16.2422 23.7393 14.7103L17.5032 8.47412L1.03747 24.9392C0.373179 25.6037 0 26.5048 0 27.4444C0 28.3841 0.373179 29.2852 1.03747 29.9497L25.0516 53.9628C26.4345 55.3457 28.6766 55.3457 30.0616 53.9628L53.9629 30.0613C54.627 29.3966 55.0001 28.4953 55 27.5557C54.9999 26.616 54.6267 25.7149 53.9625 25.0503Z" fill="#F34F29"/>
</svg>
