<svg width="55" height="55" viewBox="0 0 55 55" fill="none" xmlns="http://www.w3.org/2000/svg">
<g clip-path="url(#clip0_38_14)">
<path d="M0.60498 0.60498H54.395V54.3954H0.60498V0.60498Z" fill="#F0DB4F"/>
<path d="M49.9928 41.5662C49.5988 39.1123 47.9986 37.0511 43.2588 35.1291C41.6122 34.3724 39.7766 33.8306 39.2296 32.5827C39.0354 31.8566 39.0096 31.4475 39.1325 31.0079C39.4852 29.5814 41.1881 29.1366 42.5377 29.5457C43.407 29.837 44.2299 30.5069 44.7261 31.5756C47.0473 30.0725 47.0426 30.0824 48.6634 29.0494C48.07 28.1295 47.7533 27.7049 47.3649 27.3113C45.9688 25.752 44.0666 24.9489 41.0244 25.0104L39.4397 25.2153C37.9212 25.599 36.474 26.3961 35.6254 27.4647C33.079 30.354 33.8052 35.4105 36.9037 37.4915C39.9562 39.7826 44.4404 40.3038 45.0132 42.4462C45.5705 45.069 43.0856 45.9181 40.6158 45.6165C38.7956 45.2379 37.7833 44.3128 36.6888 42.6306C34.6745 43.7963 34.6745 43.7963 32.6034 44.9874C33.0945 46.0612 33.6106 46.5472 34.4338 47.4774C38.3302 51.4297 48.0807 51.2355 49.8295 45.2534C49.9004 45.048 50.3714 43.6781 49.9928 41.5662ZM29.8469 25.327H24.8157L24.7951 38.3345C24.7951 41.1009 24.9382 43.6369 24.4883 44.4142C23.7522 45.943 21.8449 45.7535 20.9756 45.457C20.0909 45.0222 19.641 44.4039 19.1198 43.5299C18.9767 43.279 18.8693 43.0847 18.8332 43.0697L14.7426 45.5748C15.4227 46.9708 16.4248 48.1825 17.7083 48.9697C19.6255 50.1204 22.2024 50.4732 24.8974 49.8545C26.6513 49.3436 28.1647 48.2852 28.957 46.6743C30.1026 44.5624 29.8568 42.0062 29.8465 39.1789C29.8723 34.5662 29.8469 29.9543 29.8469 25.327Z" fill="#323330"/>
</g>
<defs>
<clipPath id="clip0_38_14">
<rect width="55" height="55" fill="white"/>
</clipPath>
</defs>
</svg>
