<svg width="65" height="55" viewBox="0 0 65 55" fill="none" xmlns="http://www.w3.org/2000/svg">
<path fill-rule="evenodd" clip-rule="evenodd" d="M45.125 43.8303C45.2167 43.6834 45.3047 43.5538 45.3796 43.4196C45.4268 43.3337 45.4995 43.3165 45.6021 43.3188C46.2171 43.3333 46.8321 43.3491 47.4477 43.354C47.9704 43.3586 48.4942 43.3504 49.0175 43.3455C49.607 43.3396 50.1964 43.3138 50.7854 43.3278C51.5697 43.3468 52.334 43.4747 53.0435 43.7652C53.8908 44.1127 54.5318 44.6419 54.9688 45.3391C55.2435 45.7812 55.415 46.2626 55.4742 46.758C55.5675 47.4846 55.5062 48.1944 55.2294 48.8894C54.8863 49.7507 54.2349 50.4099 53.3301 50.9038C52.6337 51.2839 51.8699 51.5084 51.0514 51.6368C50.185 51.7728 49.316 51.7289 48.447 51.7312C47.4938 51.7344 46.5412 51.7172 45.588 51.7082C45.4214 51.7068 45.3975 51.6806 45.4415 51.5482L45.4822 51.4262C45.575 51.1831 45.6249 51.1722 45.9213 51.1316C46.1314 51.104 46.3323 51.0405 46.5113 50.945C46.6112 50.8898 46.6525 50.7461 46.6915 50.6354C46.7252 50.5387 46.7268 50.4325 46.7279 50.3304C46.7415 48.7828 46.7556 47.2356 46.7632 45.6888C46.7653 45.2976 46.7535 44.9064 46.7279 44.5158C46.7095 44.2424 46.5341 44.0553 46.1433 43.9907C45.8393 43.9406 45.5332 43.9017 45.2276 43.857L45.125 43.8303ZM53.8512 47.5776C53.8099 47.2695 53.7898 46.9586 53.7236 46.6549C53.5651 45.9261 53.1819 45.2912 52.5088 44.7937C51.4205 43.9898 50.1101 43.866 48.7368 43.9618C48.4242 43.9835 48.3569 44.0725 48.352 44.34C48.3444 44.7196 48.3368 45.0991 48.3362 45.4787C48.3341 46.6825 48.3341 47.8863 48.3362 49.09C48.3368 49.4326 48.3411 49.7751 48.3531 50.1167C48.3661 50.4664 48.5186 50.7624 48.9301 50.898C49.5787 51.1117 50.261 51.137 50.9417 51.0498C52.029 50.9111 52.7894 50.3837 53.2997 49.5934C53.7035 48.9662 53.8175 48.2816 53.8512 47.5776ZM56.4941 51.6765C56.4811 51.489 56.5733 51.334 56.6873 51.1917C56.7183 51.1533 56.8247 51.1551 56.8979 51.1429L57.52 51.0403C57.7398 51.0014 57.8555 50.8785 57.8864 50.6991C57.907 50.5807 57.9266 50.461 57.9282 50.3413C57.9429 49.3937 57.9536 48.4462 57.9602 47.4986C57.9656 46.5496 57.9613 45.6007 57.9613 44.6518L57.9564 44.4706C57.9342 44.1656 57.7572 44.0074 57.3935 43.9627L56.6048 43.8628C56.5077 43.852 56.4724 43.8131 56.5077 43.7413C56.5685 43.6188 56.6265 43.4919 56.7123 43.3816C56.7443 43.3409 56.8524 43.3251 56.9251 43.3265C57.3018 43.331 57.6785 43.3545 58.0552 43.354L61.3343 43.3378C61.9661 43.3373 62.5763 43.429 63.1429 43.6807C63.7666 43.9573 64.1157 44.3852 64.2155 44.9681C64.3197 45.5804 64.0967 46.0964 63.5593 46.5063C63.3384 46.6753 63.0523 46.7855 62.7961 46.9229L62.7125 46.9663C62.9502 47.039 63.1766 47.1018 63.397 47.1768C64.0418 47.3969 64.5548 47.7408 64.8262 48.2898C65.0406 48.7231 65.0406 49.175 64.9136 49.6241C64.716 50.3273 64.1596 50.7949 63.4361 51.1487C62.757 51.4809 62.022 51.6743 61.2393 51.7068C60.5174 51.7371 59.7922 51.7258 59.0686 51.7326L58.6496 51.7344C57.9522 51.721 57.2549 51.7066 56.5576 51.691L56.4941 51.6765ZM59.4996 48.9251H59.5067C59.5067 49.2224 59.5018 49.5198 59.5083 49.8171C59.5127 50.0096 59.5045 50.2075 59.5544 50.3928C59.6294 50.6698 59.7813 50.9196 60.1548 50.9992C60.654 51.1084 61.1756 51.1275 61.6844 51.0552C62.3233 50.9626 62.833 50.696 63.1125 50.1894C63.3199 49.813 63.3508 49.414 63.2797 49.0064C63.1853 48.4696 62.8428 48.0801 62.2734 47.8248C61.8999 47.6572 61.5015 47.5546 61.077 47.541C60.6015 47.5261 60.1255 47.5252 59.65 47.513C59.5164 47.5099 59.498 47.5663 59.4985 47.6576C59.5012 48.0797 59.4996 48.5022 59.4996 48.9251ZM60.512 46.903C60.772 46.8922 61.0662 46.889 61.3587 46.8646C61.9189 46.818 62.3135 46.5835 62.5193 46.1375C62.624 45.9112 62.6197 45.678 62.6224 45.4426C62.6305 44.8294 62.2006 44.3269 61.501 44.119C60.9609 43.9586 60.4039 43.9559 59.8438 43.9686C59.6169 43.9735 59.5154 44.0562 59.5121 44.2465L59.4785 46.7268C59.4768 46.8253 59.5278 46.8678 59.6429 46.8709L60.512 46.903Z" fill="#94795D"/>
<path fill-rule="evenodd" clip-rule="evenodd" d="M3.48293 51.1998L3.44331 51.6264C3.0742 51.6264 2.73386 51.6241 2.39352 51.6273C1.75246 51.6327 1.11141 51.6413 0.469811 51.649L0.407931 51.6521C0.316197 51.6431 0.149555 51.6431 0.145212 51.6205C0.118072 51.4935 0.126757 51.3602 0.133814 51.2287C0.134356 51.2138 0.196779 51.1948 0.233147 51.1876L0.731987 51.095C1.04302 51.0277 1.15266 50.916 1.16732 50.6485C1.18415 50.3471 1.20097 50.0453 1.2026 49.7439C1.20749 49.0019 1.20206 48.2609 1.20586 47.5189C1.2064 47.3454 1.13421 47.2162 0.939882 47.1457C0.70897 47.0603 0.476438 46.9781 0.242375 46.8989C0.131642 46.8619 -0.0122018 46.8416 0.000825534 46.7177C0.0138529 46.5917 0.153354 46.5587 0.284714 46.5338C0.828607 46.4304 1.37304 46.3296 1.91531 46.2193C2.09009 46.1836 2.25728 46.1235 2.46626 46.063C2.47711 46.157 2.4972 46.2464 2.49502 46.3359L2.463 46.7611C2.46246 46.809 2.49231 46.8732 2.53519 46.8998C2.56125 46.9166 2.64864 46.8863 2.69206 46.8583C3.15562 46.5646 3.64632 46.3111 4.20595 46.1633C5.07282 45.9342 5.81701 46.1466 6.3381 46.7688C6.52157 46.988 6.52211 46.988 6.77669 46.8348C7.21365 46.5704 7.67069 46.3373 8.18202 46.1836C9.30454 45.8461 10.3831 46.2745 10.7734 47.2157C10.9156 47.5573 10.9699 47.9102 10.9688 48.2708L10.9585 50.6648C10.9579 50.8623 11.0366 50.9748 11.2624 51.0362C11.5159 51.1054 11.7787 51.1528 12.0642 51.2152L11.998 51.6268C11.6734 51.6268 11.3748 51.625 11.0763 51.6273C10.3467 51.6327 9.6172 51.6359 8.88821 51.6499C8.76119 51.6526 8.72808 51.6264 8.72157 51.5274C8.7004 51.2107 8.69714 51.2111 9.05539 51.1397L9.1759 51.114C9.52601 51.0344 9.64271 50.945 9.64542 50.6494C9.65357 49.8008 9.67474 48.95 9.62317 48.1032C9.56943 47.2247 8.73188 46.7571 7.70923 46.9821C7.37917 47.0573 7.06832 47.182 6.79189 47.3499C6.6969 47.4064 6.67898 47.4715 6.68658 47.5704C6.71535 47.9446 6.73326 48.3192 6.73706 48.6938C6.74358 49.3494 6.73381 50.0051 6.73706 50.6612C6.73815 50.9269 6.84725 51.0286 7.16262 51.09L7.63107 51.1799L7.71792 51.1962C7.72443 51.3209 7.7304 51.4456 7.72334 51.5703C7.719 51.6485 7.64627 51.6553 7.56484 51.6539C7.10943 51.6445 6.65347 51.6318 6.19806 51.6327C5.64385 51.6336 5.09019 51.6467 4.53652 51.6548H4.40625C4.40625 51.5224 4.39865 51.3959 4.41168 51.2699C4.41439 51.2396 4.47844 51.1971 4.52241 51.1876L5.06847 51.0914C5.30025 51.0439 5.41099 50.945 5.42401 50.7489C5.48589 49.8406 5.5304 48.9319 5.42781 48.0241C5.40281 47.8448 5.34305 47.6701 5.25086 47.5067C4.97131 46.9925 4.3422 46.7778 3.61646 46.9324C3.27178 47.0056 2.96075 47.1371 2.66655 47.3029C2.6024 47.3358 2.5497 47.3821 2.5137 47.4372C2.47771 47.4923 2.45966 47.5543 2.46137 47.617C2.46137 48.523 2.46517 49.4289 2.46843 50.3345L2.4744 50.6838C2.48091 50.9273 2.60521 51.0557 2.89562 51.1081C3.08234 51.1433 3.27124 51.1673 3.48293 51.1998Z" fill="#50382B"/>
<path fill-rule="evenodd" clip-rule="evenodd" d="M36.2999 46.1556C36.3841 46.4963 36.3824 46.8027 36.0817 47.0349C35.7832 47.2658 35.4054 47.1881 35.0368 47.1366C35.071 47.2984 35.109 47.4357 35.1275 47.5749C35.2615 48.6092 34.7269 49.377 33.5745 49.8157C33.1392 49.9811 32.6772 50.0426 32.2055 50.0742C31.971 50.0895 31.7659 50.2387 31.7436 50.3991C31.7208 50.5617 31.8435 50.7289 32.0888 50.7777C32.3782 50.8351 32.68 50.8514 32.9769 50.8799C33.6141 50.9404 34.2584 50.968 34.8881 51.0629C35.8402 51.2057 36.3716 51.8975 36.2039 52.6937C36.0546 53.4022 35.5617 53.9178 34.8745 54.3132C33.7167 54.981 32.4465 55.1762 31.0939 54.8355C30.3204 54.6403 29.7748 54.2169 29.5865 53.5319C29.492 53.1889 29.5925 52.8785 29.9024 52.6458C30.271 52.3701 30.6721 52.1243 31.058 51.864L31.1829 51.7596L31.0396 51.6761C30.6461 51.5206 30.3312 51.3078 30.2091 50.9382C30.1673 50.813 30.2107 50.7307 30.3383 50.6666C30.5554 50.5577 30.7714 50.447 30.9859 50.3345C31.0868 50.282 31.1867 50.2278 31.2806 50.1673C31.4087 50.0859 31.3973 50.0254 31.2442 49.9784C30.8881 49.869 30.5717 49.7104 30.3263 49.4664C29.9165 49.0593 29.8004 48.5744 29.834 48.0625C29.8867 47.2627 30.4083 46.7358 31.2562 46.3969C32.2642 45.9943 33.2754 45.969 34.3029 46.3359C34.6829 46.4714 35.0835 46.5004 35.4912 46.4769C35.7957 46.4588 36.0616 46.363 36.2999 46.1556ZM32.5855 51.8857C31.8288 51.8803 31.5916 51.958 31.1476 52.3344C30.6504 52.7565 30.6531 53.3416 31.1492 53.7655C31.5259 54.0868 31.996 54.2372 32.5187 54.2824C33.1294 54.3348 33.7308 54.3136 34.2856 54.0592C34.8772 53.7867 35.1714 53.2806 35.0385 52.7709C34.9283 52.3502 34.5559 52.1577 34.1027 52.047C33.587 51.9214 33.0539 51.8975 32.5855 51.8857ZM31.0993 47.8605C31.127 48.0354 31.1384 48.2125 31.1851 48.3837C31.3061 48.8275 31.5379 49.2174 32.0682 49.4149C32.6908 49.6476 33.486 49.5478 33.7585 48.8203C33.9447 48.3361 33.923 47.8131 33.6972 47.3408C33.6015 47.1249 33.4292 46.9384 33.2032 46.8058C32.6626 46.4918 31.6872 46.4502 31.2898 47.1443C31.1606 47.3698 31.1102 47.6097 31.0993 47.8605Z" fill="#4F382B"/>
<path fill-rule="evenodd" clip-rule="evenodd" d="M23.4621 46.044C23.4822 46.1212 23.5224 46.2089 23.5235 46.297C23.5251 46.4647 23.5034 46.6323 23.492 46.7999V46.9454L23.6624 46.837C24.1292 46.5171 24.6308 46.2446 25.2148 46.0977C26.269 45.8334 27.322 46.3137 27.6656 47.2075C27.7959 47.5473 27.8475 47.8966 27.8523 48.2518C27.8632 49.0408 27.8697 49.8297 27.8795 50.6187C27.8827 50.902 27.9218 50.9526 28.2437 51.0344C28.4269 51.0799 28.6137 51.1145 28.8028 51.1379C28.9065 51.1514 28.951 51.1853 28.9456 51.2698L28.9466 51.3475C28.9428 51.6742 28.9157 51.6891 28.5352 51.6882C27.6244 51.6869 26.7141 51.6914 25.8032 51.6977C25.5318 51.6995 25.5313 51.7063 25.5042 51.4831L25.4987 51.3548C25.5156 51.1623 25.521 51.1641 25.7484 51.1361C25.9015 51.1171 26.0535 51.0877 26.2028 51.0552C26.3564 51.0222 26.4302 50.9278 26.4508 50.8012C26.4611 50.7371 26.4747 50.6729 26.4742 50.6087C26.4611 49.7466 26.478 48.8835 26.4215 48.0227C26.3759 47.3264 25.7376 46.9116 24.8978 46.959C24.4931 46.9823 24.104 47.0985 23.7737 47.2947C23.5495 47.4253 23.5045 47.6138 23.5055 47.8166C23.5099 48.6228 23.5191 49.4289 23.5294 50.2355C23.5316 50.4122 23.5376 50.5888 23.5577 50.7642C23.5788 50.9558 23.6597 51.033 23.8855 51.0746C24.1015 51.1144 24.3219 51.1374 24.5526 51.1695L24.5722 51.3177C24.5798 51.6634 24.5363 51.6891 24.133 51.6878C23.1913 51.6846 22.2495 51.6896 21.3083 51.6982C21.1601 51.7 21.0971 51.6611 21.1009 51.5409L21.0987 51.4894C21.0743 51.1781 21.0852 51.1663 21.4391 51.1157L21.6063 51.0877C21.9895 51.0159 22.0877 50.9309 22.0932 50.6069C22.1111 49.5807 22.1176 48.555 22.1301 47.5288C22.1317 47.3815 22.0649 47.2672 21.8999 47.2062C21.6683 47.1217 21.4355 47.0398 21.2013 46.9604C21.0721 46.9161 20.9245 46.8881 20.9196 46.7394C20.9164 46.6346 21.051 46.5419 21.235 46.5107C21.6046 46.4484 21.9775 46.3964 22.3429 46.3201C22.7065 46.2446 23.0637 46.1434 23.4621 46.044Z" fill="#4F372B"/>
<path fill-rule="evenodd" clip-rule="evenodd" d="M43.8255 48.7243C43.8081 49.6828 43.509 50.4577 42.6948 51.0393C41.6635 51.7772 40.0546 52.0279 38.7394 51.4762C38.1781 51.2408 37.7656 50.8798 37.4969 50.4112C37.0849 49.6904 36.9818 48.9327 37.1967 48.1563C37.4095 47.3886 37.968 46.8324 38.804 46.4722C39.6638 46.1022 40.5692 45.9576 41.524 46.1519C42.7317 46.3972 43.5997 47.2169 43.7723 48.2607C43.8032 48.4437 43.8152 48.629 43.8255 48.7243ZM42.4267 49.2435L42.38 49.239C42.38 49.1486 42.3859 49.0583 42.3789 48.9679C42.3393 48.4049 42.1873 47.8685 41.7954 47.3972C41.4235 46.9508 40.9171 46.6873 40.2581 46.6489C39.5205 46.6055 38.9006 46.949 38.6829 47.5762C38.3561 48.5178 38.4669 49.4356 39.0412 50.2982C39.2914 50.6742 39.6621 50.9516 40.1588 51.0976C41.1321 51.3827 41.9951 51.0135 42.2486 50.1839C42.342 49.8775 42.3691 49.5571 42.4267 49.2435Z" fill="#4F382B"/>
<path fill-rule="evenodd" clip-rule="evenodd" d="M19.917 48.7985C19.8969 49.4863 19.702 50.122 19.1918 50.6747C18.6452 51.2666 17.8939 51.5829 17.0396 51.7162C16.0294 51.8735 15.0806 51.7307 14.2691 51.1663C13.8837 50.8979 13.6204 50.554 13.4467 50.1627C13.1618 49.5211 13.0906 48.8636 13.266 48.1935C13.4532 47.4763 13.9396 46.9282 14.6936 46.5604C15.5653 46.1361 16.506 45.9468 17.5107 46.1375C18.8026 46.3833 19.5484 47.0841 19.8242 48.1451C19.8795 48.3593 19.8871 48.5807 19.917 48.7985ZM18.5024 49.2522L18.465 49.2477V49.1184C18.4438 48.4876 18.2956 47.8866 17.8435 47.3625C17.5086 46.9734 17.0602 46.7294 16.4854 46.6612C15.5485 46.55 14.9362 47.0127 14.7332 47.6413C14.4683 48.4623 14.5513 49.2734 14.9612 50.052C15.2168 50.5373 15.6207 50.9155 16.2411 51.099C17.2084 51.385 18.0845 51.0063 18.3293 50.1799C18.4194 49.8776 18.4465 49.5622 18.5024 49.2522Z" fill="#4F372B"/>
<path fill-rule="evenodd" clip-rule="evenodd" d="M42.4669 13.7383C43.1329 15.3411 43.6116 16.9773 43.7696 18.6727C43.965 20.7766 43.876 22.866 43.3429 24.9351L43.2745 25.1005C43.1074 25.1009 42.9369 25.0833 42.7735 25.1046C41.3932 25.2853 40.0144 25.4724 38.6352 25.6585C37.2092 25.851 35.7822 26.0359 34.3589 26.241C33.8547 26.3133 33.2304 26.227 33.0269 26.8072L32.9292 26.8348L32.9981 23.3653L32.9281 14.994L33.5925 14.8991C34.6787 14.7514 35.7648 14.6009 36.8526 14.4568C38.1499 14.2855 39.4483 14.1183 40.7467 13.9511C41.3199 13.8779 41.8936 13.8097 42.4669 13.7383Z" fill="#439934"/>
<path fill-rule="evenodd" clip-rule="evenodd" d="M31.558 36.9492C30.8573 36.4476 30.1321 35.9682 29.4606 35.4404C25.8466 32.6027 23.2026 29.262 21.9004 25.2345C21.5416 24.1265 21.3028 23 21.2257 21.855C21.1714 21.0534 21.0938 20.245 21.1622 19.4475C21.343 17.3268 21.7115 15.2266 22.4584 13.1837L22.4997 13.1362C22.5724 13.2167 22.6766 13.2881 22.7135 13.3789C23.4431 15.1665 24.1666 16.9559 24.8869 18.7466C27.1499 24.3728 29.4102 30.0004 31.6769 35.6257C31.7214 35.7355 31.836 35.8254 31.9185 35.9244L31.558 36.9492Z" fill="#45A538"/>
<path fill-rule="evenodd" clip-rule="evenodd" d="M42.4669 13.7381C41.8931 13.8091 41.3194 13.8778 40.7467 13.951C39.4483 14.1181 38.1499 14.2853 36.8526 14.4566C35.7654 14.6003 34.6792 14.7508 33.5925 14.899L32.9281 14.9939L32.9227 14.6333C32.9004 14.3368 32.8635 14.0404 32.8587 13.744L32.7843 8.07126C32.7669 6.88782 32.7409 5.70437 32.7121 4.52139C32.6974 3.78611 32.6719 3.05102 32.6356 2.31627C32.6138 1.92179 32.5373 1.52912 32.5069 1.13464C32.489 0.907802 32.5129 0.679157 32.5189 0.451416C32.8576 0.997724 33.1892 1.5481 33.5372 2.09034C34.087 2.94753 34.9637 3.57924 35.7534 4.26834C38.8724 6.99355 41.0865 10.1602 42.4669 13.7381Z" fill="#46A037"/>
<path fill-rule="evenodd" clip-rule="evenodd" d="M32.9298 26.8345L33.0275 26.8069C33.231 26.2267 33.8553 26.313 34.3595 26.2407C35.7828 26.0355 37.2098 25.8507 38.6358 25.6582C40.015 25.4725 41.3938 25.2855 42.7741 25.1043C42.9375 25.083 43.1079 25.1006 43.2751 25.1002C43.0173 25.8666 42.8143 26.6496 42.487 27.3948C42.1152 28.2398 41.6657 29.0649 41.1886 29.8737C40.4739 31.0799 39.5896 32.2112 38.5543 33.2437C37.7586 34.0399 36.8716 34.7769 35.9831 35.504C35.4913 35.9057 34.9126 36.2333 34.3731 36.5948L34.2331 36.5153L33.7299 36.1574L33.2093 35.2066C32.8536 34.098 32.6595 32.9577 32.6312 31.8104L32.641 31.617L32.7121 30.7793C32.7354 30.4932 32.7669 30.2076 32.7816 29.9216C32.8337 28.8932 32.8804 27.8638 32.9298 26.8345Z" fill="#409433"/>
<path fill-rule="evenodd" clip-rule="evenodd" d="M32.9296 26.8346C32.8807 27.8639 32.8341 28.8937 32.7814 29.9231C32.7667 30.2096 32.7358 30.4951 32.7119 30.7807L32.3949 30.8806C31.6904 29.154 30.9853 27.4455 30.2959 25.7329C29.1555 22.8993 28.0291 20.0615 26.8903 17.227C25.9707 14.9393 25.0447 12.6535 24.1122 10.3694C24.0683 10.2628 23.9434 10.1787 23.8566 10.0843L25.8867 6.97681C25.9567 7.07757 26.0484 7.17201 26.0924 7.28046C27.0314 9.59402 27.9689 11.908 28.8982 14.2243C30.1075 17.2383 31.3088 20.2536 32.5171 23.268C32.5654 23.3882 32.6446 23.4993 32.7206 23.6344L32.9985 23.3651L32.9296 26.8346Z" fill="#4FAA41"/>
<path fill-rule="evenodd" clip-rule="evenodd" d="M23.8562 10.0845C23.9436 10.1789 24.0684 10.263 24.1118 10.3696C25.0444 12.6536 25.9704 14.9395 26.8899 17.2271C28.0287 20.0617 29.155 22.8994 30.2955 25.7331C30.9848 27.4457 31.69 29.1537 32.3945 30.8808L32.7115 30.7809L32.6404 31.6187L32.5758 31.8116C32.4656 32.7285 32.3728 33.6471 32.2382 34.5621C32.1709 35.0208 32.027 35.4708 31.9179 35.9245C31.836 35.8255 31.7209 35.7356 31.6764 35.6258C29.4091 30.0005 27.1494 24.373 24.8864 18.7468C24.1664 16.9563 23.442 15.167 22.713 13.379C22.6761 13.2882 22.5719 13.2168 22.4991 13.1364L23.8562 10.0845Z" fill="#4AA73C"/>
<path fill-rule="evenodd" clip-rule="evenodd" d="M32.9981 23.3651L32.7202 23.6345C32.6442 23.4994 32.5649 23.3882 32.5166 23.268C31.3083 20.2536 30.1071 17.2383 28.8977 14.2243C27.9673 11.9083 27.0321 9.59372 26.092 7.28048C26.048 7.17203 25.9563 7.07759 25.8862 6.97682L28.3967 4.22766C28.476 4.31532 28.5889 4.3935 28.6296 4.49246C29.3265 6.19148 30.017 7.89185 30.7042 9.59359C31.3458 11.1833 31.9776 12.7747 32.6268 14.3617C32.6702 14.4679 32.8217 14.5429 32.9226 14.6333L32.9281 14.9939L32.9981 23.3651Z" fill="#57AE47"/>
<path fill-rule="evenodd" clip-rule="evenodd" d="M32.9227 14.6333C32.8211 14.5434 32.6702 14.4683 32.6268 14.3617C31.9782 12.7747 31.3458 11.1833 30.7042 9.5936C30.0175 7.89185 29.326 6.19147 28.6296 4.49247C28.5889 4.39351 28.476 4.31533 28.3967 4.22767C29.2131 3.56207 30.004 2.87252 30.8535 2.23765C31.6085 1.67372 32.2154 1.06912 32.2436 0.177584L32.3033 0L32.5183 0.450964C32.5128 0.678705 32.4884 0.90735 32.5063 1.13419C32.5373 1.52867 32.6138 1.92134 32.635 2.31582C32.6746 3.0501 32.6936 3.78574 32.7115 4.52093C32.7403 5.70392 32.7663 6.88736 32.7837 8.0708L32.8581 13.7435C32.8635 14.0404 32.9009 14.3368 32.9227 14.6333Z" fill="#60B24F"/>
<path fill-rule="evenodd" clip-rule="evenodd" d="M31.9185 35.9239C32.0276 35.4702 32.1714 35.0202 32.2387 34.5615C32.3733 33.6469 32.4662 32.7278 32.5763 31.811L32.604 31.8074L32.6312 31.8114C32.6595 32.9587 32.8536 34.099 33.2093 35.2077C33.136 35.2881 33.0334 35.3591 32.9943 35.4494C32.693 36.1571 32.4086 36.8705 32.1057 37.5777C32.0645 37.6744 31.9483 37.7499 31.8674 37.8344L31.5575 36.9487L31.9185 35.9239Z" fill="#A9AA88"/>
<path fill-rule="evenodd" clip-rule="evenodd" d="M31.8673 37.8347C31.9482 37.7498 32.0643 37.6748 32.1056 37.5781C32.4085 36.8709 32.6929 36.1574 32.9942 35.4498C33.0327 35.3594 33.1359 35.2884 33.2091 35.208L33.7297 36.1587C33.6271 36.2798 33.4849 36.3896 33.4279 36.5247L32.4313 38.9612C32.39 39.0593 32.2505 39.128 32.1561 39.2106L31.8673 37.8347Z" fill="#B6B598"/>
<path fill-rule="evenodd" clip-rule="evenodd" d="M32.1561 39.2104C32.25 39.1277 32.3901 39.059 32.4313 38.9609L33.4279 36.5245C33.4844 36.3894 33.6271 36.2795 33.7297 36.1584L34.2335 36.5159C33.9903 36.7161 33.8551 36.9474 33.9365 37.2398L33.7835 37.6568C33.714 37.7282 33.613 37.7906 33.5788 37.8724C33.2309 38.702 32.8992 39.5362 32.5486 40.3653C32.5041 40.4702 32.3809 40.5529 32.2945 40.6459L32.1561 39.2104Z" fill="#C2C1A7"/>
<path fill-rule="evenodd" clip-rule="evenodd" d="M32.294 40.6454C32.3809 40.5523 32.5041 40.4696 32.5481 40.3647C32.8987 39.5356 33.2309 38.7014 33.5783 37.8718C33.6125 37.79 33.7135 37.7281 33.783 37.6562L33.5718 39.5704C33.5154 39.6246 33.4339 39.672 33.4068 39.7348L32.7044 41.4104C32.655 41.5247 32.5606 41.6268 32.4867 41.7339C32.4211 41.6625 32.3038 41.5934 32.2984 41.5193C32.2778 41.2292 32.2924 40.9368 32.294 40.6454Z" fill="#CECDB7"/>
<path fill-rule="evenodd" clip-rule="evenodd" d="M32.4873 41.7346C32.5611 41.6275 32.6556 41.5254 32.705 41.4111L33.4074 39.7355C33.4345 39.6723 33.5165 39.6253 33.5724 39.571L33.5778 40.8272L33.0725 41.9058L32.4873 41.7346Z" fill="#DBDAC7"/>
<path fill-rule="evenodd" clip-rule="evenodd" d="M33.0725 41.9058L33.5779 40.8271L33.6821 42.1032L33.0725 41.9058Z" fill="#EBE9DC"/>
<path fill-rule="evenodd" clip-rule="evenodd" d="M33.936 37.2398C33.8551 36.9479 33.9897 36.7165 34.2329 36.5159L34.373 36.5954L33.936 37.2398Z" fill="#CECDB7"/>
<path fill-rule="evenodd" clip-rule="evenodd" d="M32.6311 31.8121L32.604 31.808L32.5763 31.8116L32.6409 31.6187L32.6311 31.8121Z" fill="#4FAA41"/>
</svg>
