<svg width="60" height="55" viewBox="0 0 60 55" fill="none" xmlns="http://www.w3.org/2000/svg">
<path d="M30 33.1083C33.0173 33.1083 35.4633 30.5974 35.4633 27.5001C35.4633 24.4027 33.0173 21.8918 30 21.8918C26.9827 21.8918 24.5367 24.4027 24.5367 27.5001C24.5367 30.5974 26.9827 33.1083 30 33.1083Z" fill="#61DAFB"/>
<path d="M50.7508 18.2513C49.6965 17.8578 48.5942 17.4642 47.4441 17.1199C47.7316 15.9392 47.9712 14.7585 48.1629 13.627C49.1693 7.13327 48.0671 2.55814 45 0.78712C44.0895 0.245975 43.0831 0 41.9329 0C38.5783 0 34.3131 2.55814 30 6.8381C25.6869 2.55814 21.4217 0 18.0671 0C16.9169 0 15.9105 0.245975 15 0.78712C11.9329 2.60733 10.8307 7.18247 11.8371 13.627C12.0288 14.7585 12.2684 15.9392 12.5559 17.1199C11.4058 17.4642 10.3035 17.8086 9.2492 18.2513C3.25879 20.6127 0 23.8596 0 27.5C0 31.1404 3.30671 34.3873 9.2492 36.7487C10.3035 37.1422 11.4058 37.5358 12.5559 37.8801C12.2684 39.0608 12.0288 40.2415 11.8371 41.373C10.8307 47.8667 11.9329 52.4419 15 54.2129C15.9105 54.754 16.9169 55 18.0671 55C21.4696 55 25.7348 52.4419 30 48.1619C34.3131 52.4419 38.5783 55 41.9329 55C43.0831 55 44.0895 54.754 45 54.2129C48.0671 52.3927 49.1693 47.8175 48.1629 41.373C47.9712 40.2415 47.7316 39.0608 47.4441 37.8801C48.5942 37.5358 49.6965 37.1914 50.7508 36.7487C56.7412 34.3873 60 31.1404 60 27.5C60 23.8596 56.7412 20.6127 50.7508 18.2513ZM43.6581 3.24687C45.623 4.42755 46.2939 8.06798 45.4792 13.2335C45.3355 14.2665 45.0958 15.3488 44.8083 16.4803C42.3163 15.89 39.6805 15.4964 36.901 15.2504C35.2716 12.8891 33.5942 10.7737 31.9169 8.8551C35.4633 5.26386 39.0575 2.80411 41.9808 2.80411C42.6038 2.80411 43.1789 2.9517 43.6581 3.24687ZM38.2907 32.4195C37.4281 33.9937 36.4217 35.568 35.3674 37.1422C33.5942 37.2898 31.8211 37.339 30 37.339C28.131 37.339 26.3578 37.2898 24.6326 37.1422C23.5783 35.568 22.6198 33.9937 21.7572 32.4195C20.8466 30.7961 19.984 29.1234 19.2173 27.5C19.984 25.8766 20.8466 24.2039 21.7572 22.5805C22.6198 21.0063 23.6262 19.432 24.6805 17.8578C26.4537 17.7102 28.2268 17.661 30.0479 17.661C31.9169 17.661 33.6901 17.7102 35.4153 17.8578C36.4697 19.432 37.4281 21.0063 38.2907 22.5805C39.2013 24.2039 40.0639 25.8766 40.8307 27.5C40.016 29.1234 39.2013 30.7469 38.2907 32.4195ZM42.2684 30.7961C42.9872 32.5179 43.5623 34.1905 44.0895 35.8631C42.4601 36.2567 40.7348 36.5519 38.9137 36.7979C39.4888 35.8631 40.1118 34.8792 40.639 33.8462C41.2141 32.8131 41.7412 31.78 42.2684 30.7961ZM30 44.1279C28.8498 42.8488 27.7476 41.4714 26.6933 40.0447C27.7955 40.0939 28.8978 40.1431 30 40.1431C31.1022 40.1431 32.2045 40.0939 33.3067 40.0447C32.2524 41.4714 31.1502 42.8488 30 44.1279ZM21.0863 36.7487C19.2652 36.5027 17.5399 36.2075 15.9105 35.814C16.4377 34.1905 17.0128 32.4687 17.7316 30.7469C18.2588 31.7308 18.7859 32.7639 19.361 33.7478C19.9361 34.8301 20.5112 35.7648 21.0863 36.7487ZM17.7316 24.2039C17.0128 22.4821 16.4377 20.8095 15.9105 19.1369C17.5399 18.7433 19.2652 18.4481 21.0863 18.2021C20.5112 19.1369 19.8882 20.1208 19.361 21.1538C18.7859 22.1869 18.2588 23.22 17.7316 24.2039ZM30 10.8721C31.1502 12.1512 32.2524 13.5286 33.3067 14.9553C32.2045 14.9061 31.1022 14.8569 30 14.8569C28.8978 14.8569 27.7955 14.9061 26.6933 14.9553C27.7476 13.5286 28.8498 12.1512 30 10.8721ZM40.639 21.203L38.9137 18.2513C40.7348 18.4973 42.4601 18.7925 44.0895 19.186C43.5623 20.8095 42.9872 22.5313 42.2684 24.2531C41.7412 23.22 41.2141 22.1869 40.639 21.203ZM14.5208 13.2335C13.7061 8.06798 14.377 4.42755 16.3419 3.24687C16.8211 2.9517 17.3962 2.80411 18.0192 2.80411C20.8946 2.80411 24.4888 5.21467 28.0831 8.8551C26.4058 10.7245 24.7284 12.8891 23.099 15.2504C20.3195 15.4964 17.6837 15.9392 15.1917 16.4803C14.9042 15.3488 14.7125 14.2665 14.5208 13.2335ZM2.68371 27.5C2.68371 25.1878 5.41534 22.7281 10.2077 20.9079C11.1661 20.5143 12.2204 20.1699 13.2748 19.8748C14.0415 22.3345 15 24.9419 16.1502 27.5492C15 30.1565 13.9936 32.7147 13.2748 35.1744C6.66134 33.2066 2.68371 30.2549 2.68371 27.5ZM16.3419 51.7531C14.377 50.5724 13.7061 46.932 14.5208 41.7665C14.6645 40.7335 14.9042 39.6512 15.1917 38.5197C17.6837 39.11 20.3195 39.5036 23.099 39.7496C24.7284 42.1109 26.4058 44.2263 28.0831 46.1449C24.5367 49.7361 20.9425 52.1959 18.0192 52.1959C17.3962 52.1959 16.8211 52.0483 16.3419 51.7531ZM45.4792 41.7665C46.2939 46.932 45.623 50.5724 43.6581 51.7531C43.1789 52.0483 42.6038 52.1959 41.9808 52.1959C39.1054 52.1959 35.5112 49.7853 31.9169 46.1449C33.5942 44.2755 35.2716 42.1109 36.901 39.7496C39.6805 39.5036 42.3163 39.0608 44.8083 38.5197C45.0958 39.6512 45.2875 40.7335 45.4792 41.7665ZM49.7923 34.0921C48.8339 34.4857 47.7796 34.8301 46.7252 35.1252C45.9585 32.6655 45 30.0581 43.8498 27.4508C45 24.8435 46.0064 22.2853 46.7252 19.8256C53.3387 21.7934 57.3163 24.7451 57.3163 27.5C57.3163 29.8122 54.5367 32.2719 49.7923 34.0921Z" fill="#61DAFB"/>
</svg>
