<svg width="55" height="55" viewBox="0 0 55 55" fill="none" xmlns="http://www.w3.org/2000/svg">
<path d="M9.31482 20.0596H53.1696V52.4744H9.31482V20.0596Z" fill="white"/>
<path d="M0 27.5V55H55V0H0V27.5ZM44.3212 25.3C45.6385 25.6057 46.8358 26.2947 47.762 27.28C48.2719 27.8108 48.7152 28.4019 49.082 29.04C49.082 29.1104 46.706 30.7164 45.2584 31.614C45.2056 31.6492 44.9944 31.4204 44.7612 31.0728C44.4969 30.6168 44.1215 30.2352 43.6698 29.9636C43.2182 29.692 42.7051 29.5392 42.1784 29.5196C40.5108 29.4052 39.4372 30.2808 39.446 31.7196C39.4322 32.0778 39.5142 32.4332 39.6836 32.7492C40.0488 33.5104 40.7308 33.9636 42.8692 34.8876C46.8072 36.5816 48.4924 37.6992 49.5396 39.2876C50.71 41.0476 50.9696 43.89 50.1776 45.9932C49.2976 48.2812 47.1416 49.8344 44.0924 50.3492C42.6997 50.5087 41.2926 50.4939 39.9036 50.3052C37.7747 49.9543 35.8137 48.9322 34.3068 47.388C33.8008 46.8292 32.8152 45.3728 32.8768 45.2672C33.0374 45.148 33.2065 45.0406 33.3828 44.946L35.42 43.8196L36.9996 42.9044L37.3296 43.3928C37.8865 44.1895 38.5953 44.8683 39.4152 45.3904C41.1752 46.3144 43.5776 46.1868 44.7656 45.1176C45.1645 44.7258 45.4133 44.2065 45.4688 43.6502C45.5243 43.0938 45.3829 42.5356 45.0692 42.0728C44.6292 41.4612 43.7492 40.9464 41.2896 39.8728C38.4516 38.6496 37.2284 37.8928 36.1108 36.6872C35.4131 35.8916 34.898 34.953 34.6016 33.9372C34.3805 32.7767 34.3478 31.5881 34.5048 30.4172C35.09 27.676 37.1448 25.762 40.1456 25.1944C41.5353 25.0224 42.943 25.061 44.3212 25.3088V25.3ZM31.4116 27.6056V29.8584H24.2704V50.1996H19.206V29.854H12.0472V27.654C12.0249 26.8953 12.0425 26.136 12.1 25.3792C12.1352 25.3396 16.5 25.3396 21.78 25.3396H31.3852L31.4116 27.6056Z" fill="#007ACC"/>
</svg>
